<?xml version="1.0" standalone="no"?><!DOCTYPE svg PUBLIC "-//W3C//DTD SVG 1.1//EN" "http://www.w3.org/Graphics/SVG/1.1/DTD/svg11.dtd"><svg t="1749517292465" class="icon" viewBox="0 0 1024 1024" version="1.1" xmlns="http://www.w3.org/2000/svg" p-id="1729" xmlns:xlink="http://www.w3.org/1999/xlink" width="200" height="200"><path d="M669.240889 71.111111a156.444444 156.444444 0 0 1 139.946667 86.471111l13.653333 27.363556 2.048-0.056889a128 128 0 1 1-82.488889 30.151111l-9.557333-19.285333a71.111111 71.111111 0 0 0-63.601778-39.310223H540.444444v486.684445c48.924444 10.638222 88.803556 48.071111 101.319112 98.190222l45.795555 183.125333H739.555556l4.380444 0.227556a42.666667 42.666667 0 0 1 0 84.878222L739.555556 1009.777778H284.444444a42.666667 42.666667 0 0 1 0-85.333334h51.996445l45.795555-183.125333c12.515556-50.062222 52.394667-87.608889 101.319112-98.190222V156.444444H354.759111a71.111111 71.111111 0 0 0-58.538667 30.72l-5.063111 8.590223-4.039111 8.021333A128 128 0 1 1 200.248889 186.595556l14.506667-29.013334 5.290666-9.671111a156.444444 156.444444 0 0 1 134.656-76.8h314.481778zM512 725.333333a48.355556 48.355556 0 0 0-46.933333 36.693334L424.391111 924.444444h175.104l-40.618667-162.417777A48.355556 48.355556 0 0 0 512 725.333333z m-291.555556-455.111111a42.666667 42.666667 0 1 0 0 85.333334 42.666667 42.666667 0 0 0 0-85.333334z m604.444445 0a42.666667 42.666667 0 1 0 0 85.333334 42.666667 42.666667 0 0 0 0-85.333334z" fill="#1664FF" p-id="1730"></path></svg>