<?xml version="1.0" standalone="no"?><!DOCTYPE svg PUBLIC "-//W3C//DTD SVG 1.1//EN" "http://www.w3.org/Graphics/SVG/1.1/DTD/svg11.dtd"><svg t="1749517305311" class="icon" viewBox="0 0 1024 1024" version="1.1" xmlns="http://www.w3.org/2000/svg" p-id="1891" xmlns:xlink="http://www.w3.org/1999/xlink" width="200" height="200"><path d="M410.911504 374.560766a28.436782 28.436782 0 0 1 39.413381 39.470253l-3.639908 4.436138-83.60414 83.60414 158.847866 158.790993 83.60414-83.60414 4.436138-3.639908a28.436782 28.436782 0 0 1 39.41338 39.470254l-3.639908 4.436138-83.60414 83.60414 36.797196 36.740322 2.900552 3.18492a42.768921 42.768921 0 0 1 0 53.916139l-2.900552 3.18492-85.310347 85.310347c-28.436782 28.436782-86.845933 60.570346-153.558624 70.693841-61.935312 9.384138-134.562854 0.056874-198.431867-51.698071l-113.064647 113.178394a28.436782 28.436782 0 0 1-40.20961-40.20961l113.178394-113.178394c-51.754944-63.869013-61.082208-136.439682-51.698071-198.374993 10.123495-66.655818 42.200185-125.121842 70.636968-153.558625l85.310347-85.310347 6.483586-5.289241a42.712047 42.712047 0 0 1 53.859266 5.346115l36.740322 36.740323 83.60414-83.60414 4.436138-3.639908zM200.820557 570.71769c-14.218391 14.218391-39.015265 55.337978-46.636323 106.012324-7.393563 48.34253 1.364966 101.234945 46.636323 146.506303l8.531034 8.076046c43.223909 38.162162 92.590163 45.441978 137.975268 38.560277 50.617473-7.677931 91.73706-32.417932 105.955451-46.636323l55.167358-55.167358L255.931041 515.550332l-55.167358 55.167358zM979.647151 4.882596a28.436782 28.436782 0 0 1 39.41338 39.470253l-3.639908 4.436138-113.178394 113.12152c51.754944 63.81214 61.082208 136.496555 51.69807 198.488741-8.815403 58.295404-34.522254 110.277842-59.887863 141.387682l-10.805977 12.057195-85.310347 85.310347a42.655173 42.655173 0 0 1-60.285979 0l-312.804605-312.804605a42.655173 42.655173 0 0 1 0-60.285979l85.310347-85.310347 12.000322-10.805977c31.166713-25.308736 83.206025-51.015587 141.501429-59.83099 61.992185-9.384138 134.50598 0 198.318119 51.641197l113.178394-113.178394 4.549885-3.696781z m-156.686671 196.213797c-45.214484-45.271357-98.106899-54.029886-146.506302-46.636323-44.304507 6.654207-81.329197 26.446208-99.414991 40.83522l-6.54046 5.74423-55.167358 55.167358 252.518627 252.518627 55.167358-55.167358 5.687356-6.54046c14.389012-18.142667 34.181012-55.167358 40.948967-99.414991 6.824828-45.385105-0.398115-94.751359-38.674024-137.975268l-7.962299-8.531035z" fill="#1664FF" p-id="1892"></path></svg>