<?xml version="1.0" standalone="no"?><!DOCTYPE svg PUBLIC "-//W3C//DTD SVG 1.1//EN" "http://www.w3.org/Graphics/SVG/1.1/DTD/svg11.dtd"><svg t="1749517309604" class="icon" viewBox="0 0 1024 1024" version="1.1" xmlns="http://www.w3.org/2000/svg" p-id="2055" xmlns:xlink="http://www.w3.org/1999/xlink" width="200" height="200"><path d="M125.667556 410.908444a28.444444 28.444444 0 0 1 34.304-10.638222l5.12 2.730667 561.038222 373.987555 197.973333-118.727111a28.444444 28.444444 0 0 1 29.184 48.810667l-201.728 121.059556a49.834667 49.834667 0 0 1-46.990222 2.275555l-6.257778-3.584-324.494222-216.348444-72.817778 109.283555a28.444444 28.444444 0 0 1-23.665778 12.686222H170.666667v163.555556a42.666667 42.666667 0 0 1-85.333334 0v-341.333333a42.666667 42.666667 0 0 1 85.333334 0v120.888889h91.420444l64.398222-96.597334-192.910222-128.625778-4.437333-3.697777a28.444444 28.444444 0 0 1-3.470222-35.726223zM283.591111 60.871111a64 64 0 0 1 68.835556-5.063111l4.608 2.730667 577.365333 378.311111 6.826667 5.12c29.696 25.6 29.411556 72.248889-0.568889 97.336889l-6.940445 5.12-195.128889 124.017777c-18.716444 11.946667-41.984 13.198222-61.667555 3.982223l-8.135111-4.664889-541.468445-360.96a64 64 0 0 1-6.997333-101.091556L279.438222 64.284444l4.152889-3.413333zM197.632 251.107556l506.88 337.92 155.477333-98.929778-536.064-351.232-126.293333 112.241778z" fill="#1664FF" p-id="2056"></path></svg>