<?xml version="1.0" standalone="no"?><!DOCTYPE svg PUBLIC "-//W3C//DTD SVG 1.1//EN" "http://www.w3.org/Graphics/SVG/1.1/DTD/svg11.dtd"><svg t="1749517312138" class="icon" viewBox="0 0 1024 1024" version="1.1" xmlns="http://www.w3.org/2000/svg" p-id="2217" xmlns:xlink="http://www.w3.org/1999/xlink" width="200" height="200"><path d="M512 42.666667c133.916444 0 254.862222 56.149333 340.252444 146.033777l14.449778 15.928889a469.845333 469.845333 0 0 1 70.656 108.657778l8.760889 20.024889 1.422222 4.152889a42.666667 42.666667 0 0 1-78.506666 32.312889l-1.820445-3.982222-7.224889-16.270223a384.398222 384.398222 0 0 0-57.742222-88.917333l-11.832889-13.084444a384 384 0 0 0-659.911111 221.866666h168.163556a42.666667 42.666667 0 0 1 36.181333 20.024889l66.332444 106.154667 157.980445-315.960889 2.844444-4.835556a42.666667 42.666667 0 0 1 70.257778-0.568889l136.533333 195.128889H938.666667a42.666667 42.666667 0 0 1 42.666666 42.666667 469.333333 469.333333 0 0 1-781.653333 350.321778l-16.213333-15.132445a470.641778 470.641778 0 0 1-92.16-126.862222l-9.557334-20.593778-1.592889-4.096a42.723556 42.723556 0 0 1 77.824-33.962666l1.991112 3.982222 7.793777 16.725333a385.194667 385.194667 0 0 0 75.434667 103.822222l13.312 12.515556a384 384 0 0 0 637.041778-244.053333h-146.887111a42.666667 42.666667 0 0 1-34.929778-18.204445l-108.316445-154.737778-159.914666 320a42.723556 42.723556 0 0 1-74.353778 3.584L275.057778 554.666667H85.333333A42.666667 42.666667 0 0 1 42.666667 512 469.333333 469.333333 0 0 1 512 42.666667z" fill="#1664FF" p-id="2218"></path></svg>