<?xml version="1.0" standalone="no"?><!DOCTYPE svg PUBLIC "-//W3C//DTD SVG 1.1//EN" "http://www.w3.org/Graphics/SVG/1.1/DTD/svg11.dtd"><svg t="1749517335641" class="icon" viewBox="0 0 1024 1024" version="1.1" xmlns="http://www.w3.org/2000/svg" p-id="2379" xmlns:xlink="http://www.w3.org/1999/xlink" width="200" height="200"><path d="M822.328889 42.666667a159.061333 159.061333 0 0 1 0 318.008889H748.657778v302.648888h73.728a159.061333 159.061333 0 1 1-159.061334 159.004445V748.657778H360.732444v73.728a159.004444 159.004444 0 1 1-159.004444-159.061334H275.342222V360.732444H201.728A159.061333 159.061333 0 1 1 360.675556 201.728V275.342222h302.535111V201.728A159.061333 159.061333 0 0 1 822.328889 42.666667zM201.671111 748.657778a73.728 73.728 0 1 0 73.728 73.671111V748.657778H201.728z m546.929778 73.671111a73.728 73.728 0 1 0 73.728-73.728H748.657778v73.728zM360.732444 663.324444h302.535112V360.732444H360.732444v302.535112zM512 455.111111a56.888889 56.888889 0 1 1 0 113.777778 56.888889 56.888889 0 0 1 0-113.777778zM201.728 128a73.728 73.728 0 0 0 0 147.342222H275.342222V201.784889c0-40.675556-32.995556-73.728-73.671111-73.728z m620.657778 0c-40.732444 0-73.784889 32.995556-73.784889 73.728V275.342222h73.728a73.671111 73.671111 0 0 0 0-147.399111z" fill="#1664FF" p-id="2380"></path><path d="M822.328889 42.666667a159.061333 159.061333 0 0 1 0 318.008889H748.657778v302.648888h73.728a159.061333 159.061333 0 1 1-159.061334 159.004445V748.657778H360.732444v73.728a159.004444 159.004444 0 1 1-159.004444-159.061334H275.342222V360.732444H201.728A159.061333 159.061333 0 1 1 360.675556 201.728V275.342222h302.535111V201.728A159.061333 159.061333 0 0 1 822.328889 42.666667zM201.671111 748.657778a73.728 73.728 0 1 0 73.728 73.671111V748.657778H201.728z m546.929778 73.671111a73.728 73.728 0 1 0 73.728-73.728H748.657778v73.728zM360.732444 663.324444h302.535112V360.732444H360.732444v302.535112zM512 455.111111a56.888889 56.888889 0 1 1 0 113.777778 56.888889 56.888889 0 0 1 0-113.777778zM201.728 128a73.728 73.728 0 0 0 0 147.342222H275.342222V201.784889c0-40.675556-32.995556-73.728-73.671111-73.728z m620.657778 0c-40.732444 0-73.784889 32.995556-73.784889 73.728V275.342222h73.728a73.671111 73.671111 0 0 0 0-147.399111z" fill="#1664FF" p-id="2381"></path><path d="M822.328889 42.666667a159.061333 159.061333 0 0 1 0 318.008889H748.657778v302.648888h73.728a159.061333 159.061333 0 1 1-159.061334 159.004445V748.657778H360.732444v73.728a159.004444 159.004444 0 1 1-159.004444-159.061334H275.342222V360.732444H201.728A159.061333 159.061333 0 1 1 360.675556 201.728V275.342222h302.535111V201.728A159.061333 159.061333 0 0 1 822.328889 42.666667zM201.671111 748.657778a73.728 73.728 0 1 0 73.728 73.671111V748.657778H201.728z m546.929778 73.671111a73.728 73.728 0 1 0 73.728-73.728H748.657778v73.728zM360.732444 663.324444h302.535112V360.732444H360.732444v302.535112zM512 455.111111a56.888889 56.888889 0 1 1 0 113.777778 56.888889 56.888889 0 0 1 0-113.777778zM201.728 128a73.728 73.728 0 0 0 0 147.342222H275.342222V201.784889c0-40.675556-32.995556-73.728-73.671111-73.728z m620.657778 0c-40.732444 0-73.784889 32.995556-73.784889 73.728V275.342222h73.728a73.671111 73.671111 0 0 0 0-147.399111z" fill="#1664FF" p-id="2382"></path></svg>