<?xml version="1.0" standalone="no"?><!DOCTYPE svg PUBLIC "-//W3C//DTD SVG 1.1//EN" "http://www.w3.org/Graphics/SVG/1.1/DTD/svg11.dtd"><svg t="1749517341857" class="icon" viewBox="0 0 1024 1024" version="1.1" xmlns="http://www.w3.org/2000/svg" p-id="2543" xmlns:xlink="http://www.w3.org/1999/xlink" width="200" height="200"><path d="M967.111111 810.666667a42.666667 42.666667 0 0 1 0 85.333333H56.888889a42.666667 42.666667 0 0 1 0-85.333333h910.222222zM142.222222 654.222222a28.444444 28.444444 0 0 1 0 56.888889H113.777778a28.444444 28.444444 0 0 1 0-56.888889h28.444444z m284.444445 0a28.444444 28.444444 0 0 1 0 56.888889H284.444444a28.444444 28.444444 0 0 1 0-56.888889h142.222223z m170.666666 0a28.444444 28.444444 0 0 1 0 56.888889H568.888889a28.444444 28.444444 0 0 1 0-56.888889h28.444444z m284.444445 0a28.444444 28.444444 0 0 1 0 56.888889H739.555556a28.444444 28.444444 0 0 1 0-56.888889h142.222222z m-625.777778-170.666666a28.444444 28.444444 0 0 1 0 56.888888H113.777778a28.444444 28.444444 0 0 1 0-56.888888h142.222222z m170.666667 0a28.444444 28.444444 0 0 1 0 56.888888H398.222222a28.444444 28.444444 0 0 1 0-56.888888h28.444445z m284.444444 0a28.444444 28.444444 0 0 1 0 56.888888H568.888889a28.444444 28.444444 0 0 1 0-56.888888h142.222222z m170.666667 0a28.444444 28.444444 0 0 1 0 56.888888H853.333333a28.444444 28.444444 0 0 1 0-56.888888h28.444445zM853.333333 71.111111a156.444444 156.444444 0 1 1 0 312.888889H56.888889a42.666667 42.666667 0 0 1 0-85.333333h796.444444A71.111111 71.111111 0 1 0 782.222222 227.555556a42.666667 42.666667 0 0 1-85.333333 0A156.444444 156.444444 0 0 1 853.333333 71.111111z" fill="#1664FF" p-id="2544"></path></svg>