<?xml version="1.0" standalone="no"?><!DOCTYPE svg PUBLIC "-//W3C//DTD SVG 1.1//EN" "http://www.w3.org/Graphics/SVG/1.1/DTD/svg11.dtd"><svg t="1749517363545" class="icon" viewBox="0 0 1024 1024" version="1.1" xmlns="http://www.w3.org/2000/svg" p-id="2707" xmlns:xlink="http://www.w3.org/1999/xlink" width="200" height="200"><path d="M853.333333 71.111111A156.444444 156.444444 0 0 1 1009.777778 227.555556v654.222222a42.666667 42.666667 0 0 1-85.333334 0v-99.555556H99.555556v99.555556a42.666667 42.666667 0 0 1-85.333334 0V227.555556A156.444444 156.444444 0 0 1 170.666667 71.111111h682.666666z m-753.777777 625.777778h824.888888V369.777778H99.555556v327.111111zM853.333333 426.666667a28.444444 28.444444 0 0 1 0 56.888889h-113.777777a28.444444 28.444444 0 0 1 0-56.888889h113.777777zM170.666667 156.444444c-39.253333 0-71.111111 31.857778-71.111111 71.111112v85.333333h114.744888a28.216889 28.216889 0 0 1 1.536-8.704l53.76-147.740445H170.666667zM273.180444 312.888889h168.675556a28.216889 28.216889 0 0 1 1.536-8.704l53.76-147.740445H330.126222L273.180444 312.888889z m455.111112 0h196.152888V227.555556c0-39.253333-31.857778-71.111111-71.111111-71.111112h-68.096L728.291556 312.888889z m-227.555556 0h168.675556a28.330667 28.330667 0 0 1 1.536-8.704l53.76-147.740445H557.681778L500.736 312.888889z" fill="#1664FF" p-id="2708"></path></svg>