<?xml version="1.0" standalone="no"?><!DOCTYPE svg PUBLIC "-//W3C//DTD SVG 1.1//EN" "http://www.w3.org/Graphics/SVG/1.1/DTD/svg11.dtd"><svg t="1749517378652" class="icon" viewBox="0 0 1024 1024" version="1.1" xmlns="http://www.w3.org/2000/svg" p-id="2871" xmlns:xlink="http://www.w3.org/1999/xlink" width="200" height="200"><path d="M494.421333 14.848a45.624889 45.624889 0 0 1 40.675556 2.787556l386.844444 227.555555 4.949334 3.299556c10.922667 8.533333 17.521778 21.788444 17.521777 35.896889v455.111111a45.511111 45.511111 0 0 1-22.471111 39.253333l-386.844444 227.555556a45.568 45.568 0 0 1-46.136889 0l-386.844444-227.555556a45.511111 45.511111 0 0 1-22.471112-39.253333V284.444444l0.398223-5.973333a45.511111 45.511111 0 0 1 22.072889-33.223111l386.844444-227.555556L494.364444 14.791111zM170.666667 310.385778v403.057778l341.333333 200.817777 341.333333-200.817777V310.385778L512 109.624889l-341.333333 200.817778zM284.444444 540.444444a28.444444 28.444444 0 0 1 28.444445 28.444445v56.888889a28.444444 28.444444 0 1 1-56.888889 0v-56.888889a28.444444 28.444444 0 0 1 28.444444-28.444445z m156.444445-56.888888a28.444444 28.444444 0 0 1 28.444444 28.444444v113.777778a28.444444 28.444444 0 1 1-56.888889 0V512a28.444444 28.444444 0 0 1 28.444445-28.444444z m142.222222-56.888889a28.444444 28.444444 0 0 1 28.444445 28.444444v170.666667a28.444444 28.444444 0 1 1-56.888889 0V455.111111a28.444444 28.444444 0 0 1 28.444444-28.444444z m156.444445-56.888889a28.444444 28.444444 0 0 1 28.444444 28.444444v227.555556a28.444444 28.444444 0 1 1-56.888889 0V398.222222a28.444444 28.444444 0 0 1 28.444445-28.444444z" fill="#1664FF" p-id="2872"></path></svg>